Cantarell-Light.ufo
<glyph name="D" format="1">
  <advance width="692"/>
  <unicode hex="0044"/>
  <note>
    D
  </note>
  <outline>
    <contour>
      <point x="273" y="0" type="line" smooth="yes"/>
      <point x="491" y="0"/>
      <point x="621" y="131"/>
      <point x="621" y="353" type="curve" smooth="yes"/>
      <point x="621" y="573"/>
      <point x="500" y="694"/>
      <point x="279" y="694" type="curve" smooth="yes"/>
      <point x="110" y="694" type="line"/>
      <point x="110" y="0" type="line"/>
    </contour>
    <contour>
      <point x="132" y="676" type="line"/>
      <point x="273" y="676" type="line" smooth="yes"/>
      <point x="487" y="676"/>
      <point x="599" y="564"/>
      <point x="599" y="348" type="curve" smooth="yes"/>
      <point x="599" y="138"/>
      <point x="483" y="18"/>
      <point x="279" y="18" type="curve" smooth="yes"/>
      <point x="132" y="18" type="line"/>
    </contour>
    <contour>
      <point x="173" y="364" type="move" name="center"/>
    </contour>
    <contour>
      <point x="340" y="0" type="move" name="bottom"/>
    </contour>
    <contour>
      <point x="330" y="694" type="move" name="top"/>
    </contour>
  </outline>
</glyph>
<glyph name="t" format="1">
  <advance width="294"/>
  <unicode hex="0074"/>
  <note>
    t
  </note>
  <outline>
    <contour>
      <point x="221" y="-3"/>
      <point x="245" y="3"/>
      <point x="268" y="12" type="curve"/>
      <point x="263" y="26" type="line"/>
      <point x="242" y="18"/>
      <point x="221" y="14"/>
      <point x="203" y="14" type="curve" smooth="yes"/>
      <point x="149" y="14"/>
      <point x="113" y="51"/>
      <point x="113" y="108" type="curve" smooth="yes"/>
      <point x="113" y="617" type="line"/>
      <point x="92" y="617" type="line"/>
      <point x="92" y="103" type="line" smooth="yes"/>
      <point x="92" y="38"/>
      <point x="134" y="-3"/>
      <point x="197" y="-3" type="curve" smooth="yes"/>
    </contour>
    <contour>
      <point x="256" y="463" type="line"/>
      <point x="256" y="480" type="line"/>
      <point x="29" y="480" type="line"/>
      <point x="29" y="463" type="line"/>
    </contour>
    <contour>
      <point x="169" y="0" type="move" name="bottom"/>
    </contour>
    <contour>
      <point x="103" y="617" type="move" name="top"/>
    </contour>
    <contour>
      <point x="237" y="480" type="move" name="topright"/>
    </contour>
    <contour>
      <point x="145" y="250" type="move" name="center"/>
    </contour>
  </outline>
</glyph>
<glyph name="y" format="1">
  <advance width="453"/>
  <unicode hex="0079"/>
  <note>
    y
  </note>
  <outline>
    <contour>
      <point x="237" y="0" type="line"/>
      <point x="426" y="480" type="line"/>
      <point x="405" y="480" type="line"/>
      <point x="224" y="14" type="line"/>
      <point x="233" y="14" type="line"/>
      <point x="50" y="480" type="line"/>
      <point x="27" y="480" type="line"/>
      <point x="219" y="0" type="line"/>
    </contour>
    <contour>
      <point x="158" y="-217" type="line"/>
      <point x="237" y="0" type="line"/>
      <point x="219" y="0" type="line"/>
      <point x="135" y="-217" type="line"/>
    </contour>
    <contour>
      <point x="215" y="480" type="move" name="top"/>
    </contour>
    <contour>
      <point x="333" y="0" type="move" name="bottom"/>
    </contour>
  </outline>
</glyph>
<glyph name="z" format="1">
  <advance width="414"/>
  <unicode hex="007A"/>
  <note>
    z
  </note>
  <outline>
    <contour>
      <point x="386" y="0" type="line"/>
      <point x="386" y="17" type="line"/>
      <point x="50" y="17" type="line"/>
      <point x="52" y="13" type="line"/>
      <point x="376" y="464" type="line"/>
      <point x="376" y="480" type="line"/>
      <point x="31" y="480" type="line"/>
      <point x="31" y="463" type="line"/>
      <point x="357" y="463" type="line"/>
      <point x="355" y="467" type="line"/>
      <point x="31" y="15" type="line"/>
      <point x="31" y="0" type="line"/>
    </contour>
    <contour>
      <point x="207" y="480" type="move" name="top"/>
    </contour>
    <contour>
      <point x="207" y="0" type="move" name="bottom"/>
    </contour>
  </outline>
</glyph>
<glyph name="Eng" format="1">
  <advance width="729"/>
  <unicode hex="014A"/>
  <outline>
    <contour>
      <point x="130" y="0" type="line"/>
      <point x="130" y="674" type="line"/>
      <point x="128" y="674" type="line"/>
      <point x="599" y="-10" type="line"/>
      <point x="619" y="0" type="line"/>
      <point x="619" y="694" type="line"/>
      <point x="599" y="694" type="line"/>
      <point x="599" y="20" type="line"/>
      <point x="603" y="20" type="line"/>
      <point x="139" y="694" type="line"/>
      <point x="110" y="694" type="line"/>
      <point x="110" y="0" type="line"/>
    </contour>
    <contour>
      <point x="577" y="-200"/>
      <point x="619" y="-117"/>
      <point x="619" y="-23" type="curve" smooth="yes"/>
      <point x="619" y="0" type="line"/>
      <point x="598" y="0" type="line"/>
      <point x="598" y="-35" type="line" smooth="yes"/>
      <point x="598" y="-112"/>
      <point x="562" y="-186"/>
      <point x="508" y="-220" type="curve"/>
      <point x="513" y="-230" type="line"/>
    </contour>
  </outline>
</glyph>
<glyph name="uni0307" format="1">
  <advance width="238"/>
  <unicode hex="0307"/>
  <outline>
    <contour>
      <point x="131" y="627"/>
      <point x="140" y="636"/>
      <point x="140" y="648" type="curve" smooth="yes"/>
      <point x="140" y="660"/>
      <point x="131" y="669"/>
      <point x="119" y="669" type="curve" smooth="yes"/>
      <point x="107" y="669"/>
      <point x="98" y="660"/>
      <point x="98" y="648" type="curve" smooth="yes"/>
      <point x="98" y="636"/>
      <point x="107" y="627"/>
      <point x="119" y="627" type="curve" smooth="yes"/>
    </contour>
    <contour>
      <point x="119" y="639" type="move" name="top"/>
    </contour>
    <contour>
      <point x="119" y="480" type="move" name="_top"/>
    </contour>
  </outline>
</glyph>
<glyph name="uni030A" format="1">
  <advance width="347"/>
  <unicode hex="030A"/>
  <outline>
    <contour>
      <point x="224" y="563"/>
      <point x="259" y="597"/>
      <point x="259" y="648" type="curve" smooth="yes"/>
      <point x="259" y="700"/>
      <point x="225" y="735"/>
      <point x="174" y="735" type="curve" smooth="yes"/>
      <point x="122" y="735"/>
      <point x="88" y="700"/>
      <point x="88" y="647" type="curve" smooth="yes"/>
      <point x="88" y="597"/>
      <point x="122" y="563"/>
      <point x="172" y="563" type="curve" smooth="yes"/>
    </contour>
    <contour>
      <point x="131" y="578"/>
      <point x="103" y="606"/>
      <point x="103" y="649" type="curve" smooth="yes"/>
      <point x="103" y="692"/>
      <point x="131" y="720"/>
      <point x="172" y="720" type="curve" smooth="yes"/>
      <point x="215" y="720"/>
      <point x="244" y="691"/>
      <point x="244" y="647" type="curve" smooth="yes"/>
      <point x="244" y="606"/>
      <point x="216" y="578"/>
      <point x="174" y="578" type="curve" smooth="yes"/>
    </contour>
    <contour>
      <point x="174" y="745" type="move" name="top"/>
    </contour>
    <contour>
      <point x="174" y="480" type="move" name="_top"/>
    </contour>
  </outline>
</glyph>
<glyph name="uni030C" format="1">
  <advance width="359"/>
  <unicode hex="030C"/>
  <outline>
    <contour>
      <point x="189" y="584" type="line"/>
      <point x="299" y="708" type="line"/>
      <point x="291" y="714" type="line"/>
      <point x="182" y="601" type="line"/>
      <point x="73" y="715" type="line"/>
      <point x="59" y="704" type="line"/>
      <point x="174" y="584" type="line"/>
    </contour>
    <contour>
      <point x="183" y="600" type="move" name="top"/>
    </contour>
    <contour>
      <point x="183" y="480" type="move" name="_top"/>
    </contour>
  </outline>
</glyph>
<glyph name="uni030D" format="1">
  <advance width="220"/>
  <unicode hex="030D"/>
  <outline>
    <contour>
      <point x="101" y="745" type="line"/>
      <point x="103" y="561" type="line"/>
      <point x="117" y="561" type="line"/>
      <point x="119" y="745" type="line"/>
    </contour>
    <contour>
      <point x="110" y="750" type="move" name="top"/>
    </contour>
    <contour>
      <point x="110" y="480" type="move" name="_top"/>
    </contour>
  </outline>
</glyph>
<glyph name="uni030F" format="1">
  <advance width="402"/>
  <unicode hex="030F"/>
  <outline>
    <contour>
      <point x="195" y="574" type="line"/>
      <point x="127" y="727" type="line"/>
      <point x="107" y="718" type="line"/>
      <point x="188" y="570" type="line"/>
    </contour>
    <contour>
      <point x="333" y="574" type="line"/>
      <point x="265" y="727" type="line"/>
      <point x="245" y="718" type="line"/>
      <point x="326" y="570" type="line"/>
    </contour>
    <contour>
      <point x="252" y="708" type="move" name="top"/>
    </contour>
    <contour>
      <point x="252" y="480" type="move" name="_top"/>
    </contour>
  </outline>
</glyph>
<glyph name="commaaccentcomb" format="1">
  <advance width="232"/>
  <unicode hex="0326"/>
  <outline>
    <component base="_commaaccent" xOffset="-13"/>
    <contour>
      <point x="129" y="0" type="move" name="_bottom"/>
    </contour>
    <contour>
      <point x="112" y="-227" type="move" name="bottom"/>
    </contour>
  </outline>
</glyph>
<glyph name="uni0327" format="1">
  <advance width="313"/>
  <unicode hex="0327"/>
  <outline>
    <contour>
      <point x="205" y="-243"/>
      <point x="246" y="-213"/>
      <point x="246" y="-164" type="curve" smooth="yes"/>
      <point x="246" y="-110"/>
      <point x="199" y="-77"/>
      <point x="120" y="-73" type="curve"/>
      <point x="135" y="4" type="line"/>
      <point x="119" y="4" type="line"/>
      <point x="101" y="-87" type="line"/>
      <point x="181" y="-91"/>
      <point x="226" y="-120"/>
      <point x="226" y="-165" type="curve" smooth="yes"/>
      <point x="226" y="-204"/>
      <point x="195" y="-226"/>
      <point x="143" y="-226" type="curve" smooth="yes"/>
      <point x="114" y="-226"/>
      <point x="83" y="-218"/>
      <point x="60" y="-207" type="curve"/>
      <point x="54" y="-223" type="line"/>
      <point x="83" y="-236"/>
      <point x="113" y="-243"/>
      <point x="142" y="-243" type="curve" smooth="yes"/>
    </contour>
    <contour>
      <point x="125" y="0" type="move" name="_bottom"/>
    </contour>
    <contour>
      <point x="251" y="-250" type="move" name="bottom"/>
    </contour>
  </outline>
</glyph>
<glyph name="uni0329" format="1">
  <advance width="220"/>
  <unicode hex="0329"/>
  <outline>
    <contour>
      <point x="119" y="-227" type="line"/>
      <point x="117" y="-43" type="line"/>
      <point x="103" y="-43" type="line"/>
      <point x="101" y="-227" type="line"/>
    </contour>
    <contour>
      <point x="110" y="0" type="move" name="_bottom"/>
    </contour>
    <contour>
      <point x="110" y="-227" type="move" name="bottom"/>
    </contour>
  </outline>
</glyph>
<glyph name="strokelongcomb" format="1">
  <advance width="919"/>
  <unicode hex="0336"/>
  <outline>
    <contour>
      <point x="816" y="335" type="line"/>
      <point x="816" y="351" type="line"/>
      <point x="103" y="351" type="line"/>
      <point x="103" y="335" type="line"/>
    </contour>
    <contour>
      <point x="460" y="342" type="move" name="_center"/>
    </contour>
  </outline>
</glyph>
<glyph name="slashlongcomb" format="1">
  <advance width="475"/>
  <unicode hex="0338"/>
  <outline>
    <contour>
      <point x="423" y="509" type="line"/>
      <point x="412" y="517" type="line"/>
      <point x="45" y="-30" type="line"/>
      <point x="56" y="-38" type="line"/>
    </contour>
    <contour>
      <point x="236" y="244" type="move" name="_center"/>
    </contour>
  </outline>
</glyph>
<glyph name="uni0418" format="1">
  <advance width="722"/>
  <unicode hex="0418"/>
  <outline>
    <contour>
      <point x="137" y="0" type="line"/>
      <point x="593" y="674" type="line"/>
      <point x="592" y="674" type="line"/>
      <point x="592" y="0" type="line"/>
      <point x="612" y="0" type="line"/>
      <point x="612" y="694" type="line"/>
      <point x="585" y="694" type="line"/>
      <point x="128" y="20" type="line"/>
      <point x="130" y="20" type="line"/>
      <point x="130" y="694" type="line"/>
      <point x="110" y="694" type="line"/>
      <point x="110" y="0" type="line"/>
    </contour>
    <contour>
      <point x="361" y="694" type="move" name="top"/>
    </contour>
    <contour>
      <point x="702" y="0" type="move" name="bottomright"/>
    </contour>
  </outline>
</glyph>
<glyph name="uni0426" format="1">
  <advance width="675"/>
  <unicode hex="0426"/>
  <outline>
    <contour>
      <point x="628" y="-175" type="line"/>
      <point x="628" y="19" type="line"/>
      <point x="132" y="19" type="line"/>
      <point x="132" y="694" type="line"/>
      <point x="110" y="694" type="line"/>
      <point x="110" y="0" type="line"/>
      <point x="607" y="0" type="line"/>
      <point x="607" y="-175" type="line"/>
    </contour>
    <contour>
      <point x="560" y="10" type="line"/>
      <point x="560" y="694" type="line"/>
      <point x="539" y="694" type="line"/>
      <point x="539" y="10" type="line"/>
    </contour>
  </outline>
</glyph>
<glyph name="uni0435" format="1">
  <advance width="493"/>
  <unicode hex="0435"/>
  <outline>
    <component base="e"/>
    <contour>
      <point x="247" y="480" type="move" name="top"/>
    </contour>
  </outline>
</glyph>
<glyph name="uni043A" format="1">
  <advance width="80"/>
  <unicode hex="043A"/>
  <outline>
    <contour>
      <point x="425" y="0" type="line"/>
      <point x="245" y="260" type="line"/>
      <point x="245" y="251" type="line"/>
      <point x="413" y="480" type="line"/>
      <point x="390" y="480" type="line"/>
      <point x="226" y="254" type="line"/>
      <point x="401" y="0" type="line"/>
    </contour>
    <contour>
      <point x="107" y="0" type="line"/>
      <point x="107" y="480" type="line"/>
      <point x="88" y="480" type="line"/>
      <point x="88" y="0" type="line"/>
    </contour>
    <contour>
      <point x="239" y="245" type="line"/>
      <point x="239" y="262" type="line"/>
      <point x="96" y="262" type="line"/>
      <point x="96" y="245" type="line"/>
    </contour>
    <contour>
      <point x="225" y="480" type="move" name="top"/>
    </contour>
    <contour>
      <point x="440" y="0" type="move" name="bottomright"/>
    </contour>
  </outline>
</glyph>
<glyph name="uni043B" format="1">
  <advance width="80"/>
  <unicode hex="043B"/>
  <outline>
    <contour>
      <point x="22" y="-7" type="line"/>
      <point x="114" y="2"/>
      <point x="169" y="90"/>
      <point x="169" y="231" type="curve" smooth="yes"/>
      <point x="169" y="463" type="line"/>
      <point x="418" y="463" type="line"/>
      <point x="418" y="0" type="line"/>
      <point x="438" y="0" type="line"/>
      <point x="438" y="480" type="line"/>
      <point x="150" y="480" type="line"/>
      <point x="150" y="232" type="line" smooth="yes"/>
      <point x="150" y="102"/>
      <point x="101" y="19"/>
      <point x="19" y="10" type="curve"/>
    </contour>
  </outline>
</glyph>
<glyph name="uni043E" format="1">
  <advance width="535"/>
  <unicode hex="043E"/>
  <outline>
    <component base="o"/>
    <contour>
      <point x="268" y="480" type="move" name="top"/>
    </contour>
  </outline>
</glyph>
<glyph name="uni0442" format="1">
  <advance width="80"/>
  <unicode hex="0442"/>
  <outline>
    <contour>
      <point x="228" y="0" type="line"/>
      <point x="228" y="476" type="line"/>
      <point x="207" y="476" type="line"/>
      <point x="207" y="0" type="line"/>
    </contour>
    <contour>
      <point x="423" y="463" type="line"/>
      <point x="423" y="480" type="line"/>
      <point x="12" y="480" type="line"/>
      <point x="12" y="463" type="line"/>
    </contour>
    <contour>
      <point x="423" y="0" type="move" name="bottomright"/>
    </contour>
  </outline>
</glyph>
<glyph name="uni0445" format="1">
  <advance width="437"/>
  <unicode hex="0445"/>
  <outline>
    <component base="x"/>
    <contour>
      <point x="427" y="0" type="move" name="bottomright"/>
    </contour>
  </outline>
</glyph>
<glyph name="uni0446" format="1">
  <advance width="80"/>
  <unicode hex="0446"/>
  <outline>
    <contour>
      <point x="480" y="-121" type="line"/>
      <point x="480" y="17" type="line"/>
      <point x="109" y="17" type="line"/>
      <point x="109" y="480" type="line"/>
      <point x="88" y="480" type="line"/>
      <point x="88" y="0" type="line"/>
      <point x="461" y="0" type="line"/>
      <point x="461" y="-121" type="line"/>
    </contour>
    <contour>
      <point x="433" y="9" type="line"/>
      <point x="433" y="480" type="line"/>
      <point x="413" y="480" type="line"/>
      <point x="413" y="9" type="line"/>
    </contour>
  </outline>
</glyph>
<glyph name="uni0449" format="1">
  <advance width="80"/>
  <unicode hex="0449"/>
  <outline>
    <contour>
      <point x="726" y="-121" type="line"/>
      <point x="726" y="17" type="line"/>
      <point x="109" y="17" type="line"/>
      <point x="109" y="480" type="line"/>
      <point x="88" y="480" type="line"/>
      <point x="88" y="0" type="line"/>
      <point x="707" y="0" type="line"/>
      <point x="707" y="-121" type="line"/>
    </contour>
    <contour>
      <point x="400" y="9" type="line"/>
      <point x="400" y="480" type="line"/>
      <point x="379" y="480" type="line"/>
      <point x="379" y="9" type="line"/>
    </contour>
    <contour>
      <point x="680" y="9" type="line"/>
      <point x="680" y="480" type="line"/>
      <point x="659" y="480" type="line"/>
      <point x="659" y="9" type="line"/>
    </contour>
  </outline>
</glyph>
<glyph name="uni044E" format="1">
  <advance width="69"/>
  <unicode hex="044E"/>
  <outline>
    <contour>
      <point x="546" y="-7"/>
      <point x="632" y="95"/>
      <point x="632" y="244" type="curve" smooth="yes"/>
      <point x="632" y="391"/>
      <point x="548" y="490"/>
      <point x="422" y="490" type="curve" smooth="yes"/>
      <point x="298" y="490"/>
      <point x="220" y="393"/>
      <point x="220" y="240" type="curve" smooth="yes"/>
      <point x="220" y="88"/>
      <point x="297" y="-7"/>
      <point x="419" y="-7" type="curve" smooth="yes"/>
    </contour>
    <contour>
      <point x="109" y="0" type="line"/>
      <point x="109" y="480" type="line"/>
      <point x="88" y="480" type="line"/>
      <point x="88" y="0" type="line"/>
    </contour>
    <contour>
      <point x="230" y="244" type="line"/>
      <point x="230" y="262" type="line"/>
      <point x="101" y="262" type="line"/>
      <point x="101" y="244" type="line"/>
    </contour>
    <contour>
      <point x="310" y="12"/>
      <point x="242" y="101"/>
      <point x="242" y="243" type="curve" smooth="yes"/>
      <point x="242" y="384"/>
      <point x="309" y="471"/>
      <point x="419" y="471" type="curve" smooth="yes"/>
      <point x="533" y="471"/>
      <point x="611" y="376"/>
      <point x="611" y="240" type="curve" smooth="yes"/>
      <point x="611" y="103"/>
      <point x="534" y="12"/>
      <point x="421" y="12" type="curve" smooth="yes"/>
    </contour>
    <contour>
      <point x="345" y="480" type="move" name="top"/>
    </contour>
  </outline>
</glyph>
<glyph name="uni04A0" format="1">
  <advance width="676"/>
  <unicode hex="04A0"/>
  <outline>
    <contour>
      <point x="641" y="0" type="line"/>
      <point x="346" y="364" type="line"/>
      <point x="346" y="353" type="line"/>
      <point x="626" y="694" type="line"/>
      <point x="602" y="694" type="line"/>
      <point x="327" y="357" type="line"/>
      <point x="616" y="0" type="line"/>
    </contour>
    <contour>
      <point x="245" y="0" type="line"/>
      <point x="245" y="694" type="line"/>
      <point x="225" y="694" type="line"/>
      <point x="225" y="0" type="line"/>
    </contour>
    <contour>
      <point x="341" y="348" type="line"/>
      <point x="341" y="366" type="line"/>
      <point x="234" y="366" type="line"/>
      <point x="234" y="348" type="line"/>
    </contour>
    <contour>
      <point x="245" y="676" type="line"/>
      <point x="245" y="694" type="line"/>
      <point x="31" y="694" type="line"/>
      <point x="31" y="676" type="line"/>
    </contour>
  </outline>
</glyph>
<glyph name="minus" format="1">
  <advance width="751"/>
  <unicode hex="2212"/>
  <outline>
    <contour>
      <point x="607" y="322" type="line"/>
      <point x="607" y="339" type="line"/>
      <point x="144" y="339" type="line"/>
      <point x="144" y="322" type="line"/>
    </contour>
  </outline>
</glyph>
<glyph name="uni27E8" format="1">
  <advance width="266"/>
  <unicode hex="27E8"/>
  <outline>
    <contour>
      <point x="219" y="-10" type="line"/>
      <point x="65" y="389" type="line"/>
      <point x="66" y="374" type="line"/>
      <point x="213" y="739" type="line"/>
      <point x="193" y="739" type="line"/>
      <point x="49" y="380" type="line"/>
      <point x="197" y="-10" type="line"/>
    </contour>
  </outline>
</glyph>
<glyph name="_o.numero" format="1">
  <advance width="559"/>
  <note>
    o
  </note>
  <outline>
    <contour>
      <point x="458" y="0" type="line"/>
      <point x="458" y="17" type="line"/>
      <point x="107" y="17" type="line"/>
      <point x="107" y="0" type="line"/>
    </contour>
    <component base="o" yOffset="218"/>
  </outline>
</glyph>
<glyph name="descender-cy" format="1">
  <advance width="205"/>
  <outline>
    <contour>
      <point x="117" y="-119" type="line"/>
      <point x="117" y="19" type="line"/>
      <point x="57" y="19" type="line"/>
      <point x="57" y="0" type="line"/>
      <point x="96" y="0" type="line"/>
      <point x="96" y="-119" type="line"/>
    </contour>
    <contour>
      <point x="96" y="0" type="move" name="_bottomright"/>
    </contour>
  </outline>
</glyph>
<glyph name="descender-cy.strait" format="1">
  <advance width="205"/>
  <outline>
    <contour>
      <point x="117" y="-119" type="line"/>
      <point x="117" y="6" type="line"/>
      <point x="96" y="6" type="line"/>
      <point x="96" y="-119" type="line"/>
    </contour>
    <contour>
      <point x="107" y="0" type="move" name="_bottomright"/>
    </contour>
  </outline>
</glyph>
<glyph name="descenderreversed-cy" format="1">
  <advance width="205"/>
  <outline>
    <contour>
      <point x="78" y="-119" type="line"/>
      <point x="78" y="0" type="line"/>
      <point x="117" y="0" type="line"/>
      <point x="117" y="19" type="line"/>
      <point x="57" y="19" type="line"/>
      <point x="57" y="-119" type="line"/>
    </contour>
    <contour>
      <point x="150" y="0" type="move" name="_bottomright"/>
    </contour>
  </outline>
</glyph>
<glyph name="four.dnom" format="1">
  <advance width="74"/>
  <note>
    four
  </note>
  <outline>
    <contour>
      <point x="308" y="-7" type="line"/>
      <point x="308" y="472" type="line"/>
      <point x="290" y="472" type="line"/>
      <point x="27" y="137" type="line"/>
      <point x="27" y="126" type="line"/>
      <point x="399" y="126" type="line"/>
      <point x="399" y="144" type="line"/>
      <point x="50" y="144" type="line"/>
      <point x="49" y="139" type="line"/>
      <point x="289" y="443" type="line"/>
      <point x="289" y="440" type="line"/>
      <point x="289" y="-7" type="line"/>
    </contour>
  </outline>
</glyph>
<glyph name="gravecomb.loclVIET" format="1">
  <advance width="0"/>
  <outline>
    <contour>
      <point x="197" y="592" type="line"/>
      <point x="84" y="716" type="line"/>
      <point x="68" y="701" type="line"/>
      <point x="190" y="584" type="line"/>
    </contour>
    <contour>
      <point x="145" y="634" type="move" name="top"/>
    </contour>
    <contour>
      <point x="169" y="480" type="move" name="_top"/>
    </contour>
  </outline>
</glyph>
<glyph name="minus.tf" format="1">
  <advance width="580"/>
  <outline>
    <contour>
      <point x="470" y="322" type="line"/>
      <point x="470" y="339" type="line"/>
      <point x="110" y="339" type="line"/>
      <point x="110" y="322" type="line"/>
    </contour>
  </outline>
</glyph>
<glyph name="one.dnom" format="1">
  <advance width="74"/>
  <note>
    one
  </note>
  <outline>
    <contour>
      <point x="162" y="11" type="line"/>
      <point x="162" y="472" type="line"/>
      <point x="150" y="472" type="line"/>
      <point x="34" y="394" type="line"/>
      <point x="42" y="380" type="line"/>
      <point x="149" y="449" type="line"/>
      <point x="141" y="455" type="line"/>
      <point x="141" y="11" type="line"/>
    </contour>
    <contour>
      <point x="256" y="0" type="line"/>
      <point x="256" y="18" type="line"/>
      <point x="37" y="18" type="line"/>
      <point x="37" y="0" type="line"/>
    </contour>
  </outline>
</glyph>
<glyph name="uni0304.narrow.case" format="1">
  <advance width="423"/>
  <outline>
    <contour>
      <point x="320" y="807" type="line"/>
      <point x="320" y="822" type="line"/>
      <point x="103" y="822" type="line"/>
      <point x="103" y="807" type="line"/>
    </contour>
    <contour>
      <point x="212" y="822" type="move" name="top"/>
    </contour>
    <contour>
      <point x="212" y="694" type="move" name="_top"/>
    </contour>
  </outline>
</glyph>
<glyph name="uni0308.case" format="1">
  <advance width="440"/>
  <outline>
    <component base="uni0308" yOffset="170"/>
    <contour>
      <point x="220" y="839" type="move" name="top"/>
    </contour>
    <contour>
      <point x="220" y="694" type="move" name="_top"/>
    </contour>
  </outline>
</glyph>
<glyph name="uni030A_acutecomb.case" format="1">
  <advance width="428"/>
  <outline>
    <contour>
      <point x="382" y="963" type="line"/>
      <point x="370" y="982" type="line"/>
      <point x="223" y="887" type="line"/>
      <point x="228" y="880" type="line"/>
    </contour>
    <component base="uni030A.case" xOffset="-14"/>
    <contour>
      <point x="159" y="694" type="move" name="_top"/>
    </contour>
  </outline>
</glyph>
<glyph name="uni030A_acutecomb" format="1">
  <advance width="401"/>
  <outline>
    <component base="uni030A" xOffset="-23"/>
    <component base="acutecomb" xOffset="132" yOffset="127"/>
    <contour>
      <point x="150" y="480" type="move" name="_top"/>
    </contour>
  </outline>
</glyph>
<glyph name="uni030C.alt" format="1">
  <advance width="219"/>
  <outline>
    <contour>
      <point x="132" y="746" type="line"/>
      <point x="112" y="749" type="line"/>
      <point x="92" y="563" type="line"/>
      <point x="101" y="562" type="line"/>
    </contour>
    <contour>
      <point x="112" y="480" type="move" name="_topright"/>
    </contour>
  </outline>
</glyph>
